<svg width="1500" height="1500" view-box="0 0 1500 1500" xmlns="http://www.w3.org/2000/svg" stroke="null">
  <title>Hiking Logo: Two Hikers Going Uphill</title>
  <g stroke="null">
   <rect stroke="null" fill="none" class="canvas_background" height="1500" width="1500" y="-0" x="-0"/>
  </g>
  <g stroke="null">
   <g stroke="null" class="two_hikers_1" fill="#353e4d">
    <path stroke="null" class="two_hikers_2" d="m1254.45,539.62c13.951,18.317 45.177,18.03 69.731,-0.663c24.568,-18.686 33.172,-48.728 19.222,-67.05l-137.54,-180.662c-13.939,-18.33 -45.183,-18.018 -69.738,0.682c-24.556,18.686 -33.148,48.689 -19.209,67.052l137.533,180.641"/>
    <path stroke="null" class="two_hikers_3" d="m1441.699,557.497c16.152,0.478 36.417,-23.625 37.348,-54.474c0.929,-30.856 -17.834,-56.786 -33.988,-57.263l-152.84,-4.27c-16.155,-0.485 -37.5,23.707 -38.431,54.55c-0.93,30.85 18.916,56.697 35.083,57.193l152.828,4.264m-408.134,211.956c11.342,-43.241 -11.469,-86.686 -50.981,-96.984c-39.499,-10.33 -80.717,16.351 -92.084,59.624l-111.818,426.228c-11.366,43.248 11.47,86.719 50.972,97.017c39.486,10.33 80.717,-16.389 92.058,-59.655l111.853,-426.23"/>
    <path stroke="null" class="two_hikers_4" d="m1011.99,769.453c-11.343,-43.241 11.467,-86.686 50.98,-96.984c39.511,-10.33 80.742,16.351 92.085,59.624l111.82,426.228c11.38,43.248 -11.471,86.719 -50.956,97.017c-39.492,10.33 -80.723,-16.389 -92.066,-59.655l-111.863,-426.23m217.418,-711.79c30.975,44.214 20.227,105.182 -23.977,136.153c-44.202,30.99 -105.184,20.239 -136.151,-23.97c-30.973,-44.203 -20.236,-105.177 23.983,-136.14c44.201,-30.976 105.146,-20.246 136.145,23.958"/>
    <path stroke="null" class="two_hikers_5" d="m1154.27,740.023c-9.153,51.937 -62.469,85.937 -119.015,75.962l-51.262,-9.03c-56.546,-9.98 -95.007,-60.159 -85.854,-112.088l67.757,-384.311c9.152,-51.936 62.459,-85.961 119.016,-76.001l51.26,9.05c56.555,9.974 95.015,60.172 85.85,112.108l-67.751,384.31m-256.21,-169.98c-6.657,37.838 -42.744,63.098 -80.576,56.428c-37.834,-6.663 -63.096,-42.744 -56.413,-80.582l38.812,-220.166c6.68,-37.838 42.754,-63.099 80.585,-56.423c37.832,6.67 63.087,42.739 56.43,80.577l-38.839,220.166m548.844,674.831c0,8.23 -10.017,14.9 -22.365,14.9c-12.347,0 -22.366,-6.67 -22.366,-14.9l0,-827.2c0,-8.237 10.019,-14.914 22.366,-14.914c12.348,0 22.365,6.677 22.365,14.913l0,827.201"/>
   </g>
   <g stroke="null" class="two_hikers_10" fill="#353e4d">
    <path stroke="null" class="two_hikers_6" d="m533.45,668.62c13.951,18.317 45.177,18.03 69.731,-0.663c24.568,-18.686 33.172,-48.728 19.222,-67.05l-137.54,-180.662c-13.939,-18.33 -45.183,-18.018 -69.738,0.682c-24.556,18.686 -33.148,48.689 -19.209,67.052l137.533,180.641"/>
    <path stroke="null" class="two_hikers_7" d="m720.699,686.497c16.152,0.478 36.417,-23.625 37.348,-54.474c0.929,-30.856 -17.834,-56.786 -33.988,-57.263l-152.84,-4.27c-16.155,-0.485 -37.5,23.707 -38.431,54.55c-0.93,30.85 18.916,56.697 35.083,57.193l152.828,4.264m-408.134,211.956c11.342,-43.241 -11.469,-86.686 -50.981,-96.984c-39.499,-10.33 -80.717,16.351 -92.084,59.624l-111.818,426.228c-11.366,43.248 11.47,86.719 50.972,97.017c39.486,10.33 80.717,-16.389 92.058,-59.655l111.853,-426.23"/>
    <path stroke="null" class="two_hikers_8" d="m290.99,898.453c-11.343,-43.241 11.467,-86.686 50.98,-96.984c39.511,-10.33 80.742,16.351 92.085,59.624l111.82,426.228c11.38,43.248 -11.471,86.719 -50.956,97.017c-39.492,10.33 -80.723,-16.389 -92.066,-59.655l-111.863,-426.23m217.418,-711.79c30.975,44.214 20.227,105.182 -23.977,136.153c-44.202,30.99 -105.184,20.239 -136.151,-23.97c-30.973,-44.203 -20.236,-105.177 23.983,-136.14c44.201,-30.976 105.146,-20.246 136.145,23.958"/>
    <path stroke="null" class="two_hikers_9" d="m433.27,869.023c-9.153,51.937 -62.469,85.937 -119.015,75.962l-51.262,-9.03c-56.546,-9.98 -95.007,-60.159 -85.854,-112.088l67.757,-384.311c9.152,-51.936 62.459,-85.961 119.016,-76.001l51.26,9.05c56.555,9.974 95.015,60.172 85.85,112.108l-67.751,384.31m-256.21,-169.98c-6.657,37.838 -42.744,63.098 -80.576,56.428c-37.834,-6.663 -63.096,-42.744 -56.413,-80.582l38.812,-220.166c6.68,-37.838 42.754,-63.099 80.585,-56.423c37.832,6.67 63.087,42.739 56.43,80.577l-38.839,220.166m548.844,674.831c0,8.23 -10.017,14.9 -22.365,14.9c-12.347,0 -22.366,-6.67 -22.366,-14.9l0,-827.2c0,-8.237 10.019,-14.914 22.366,-14.914c12.348,0 22.365,6.677 22.365,14.913l0,827.201"/>
   </g>
   <line stroke="#353e4d" stroke-linecap="null" stroke-linejoin="null" class="two_hikers_20" y2="1270" x2="1484.000149" y1="1456" x1="20" fill-opacity="null" stroke-width="24" fill="none"/>
  </g>
</svg>
